<?xml version="1.0" encoding="UTF-8" standalone="no"?>
<!-- Created with Inkscape (http://www.inkscape.org/) -->

<svg
   xmlns:dc="http://purl.org/dc/elements/1.1/"
   xmlns:cc="http://creativecommons.org/ns#"
   xmlns:rdf="http://www.w3.org/1999/02/22-rdf-syntax-ns#"
   xmlns:svg="http://www.w3.org/2000/svg"
   xmlns="http://www.w3.org/2000/svg"
   xmlns:sodipodi="http://sodipodi.sourceforge.net/DTD/sodipodi-0.dtd"
   xmlns:inkscape="http://www.inkscape.org/namespaces/inkscape"
   width="130.54747"
   height="38.881012"
   id="svg2"
   version="1.1"
   inkscape:version="0.48.4 r9939"
   sodipodi:docname="logo.svg">
  <defs
     id="defs4" />
  <sodipodi:namedview
     id="base"
     pagecolor="#fff1db"
     bordercolor="#666666"
     borderopacity="1.0"
     inkscape:pageopacity="0"
     inkscape:pageshadow="2"
     inkscape:zoom="3.959798"
     inkscape:cx="69.608917"
     inkscape:cy="-32.249324"
     inkscape:document-units="px"
     inkscape:current-layer="layer1"
     showgrid="false"
     fit-margin-top="0"
     fit-margin-left="0"
     fit-margin-right="0"
     fit-margin-bottom="0"
     inkscape:window-width="1920"
     inkscape:window-height="1030"
     inkscape:window-x="0"
     inkscape:window-y="0"
     inkscape:window-maximized="1" />
  <metadata
     id="metadata7">
    <rdf:RDF>
      <cc:Work
         rdf:about="">
        <dc:format>image/svg+xml</dc:format>
        <dc:type
           rdf:resource="http://purl.org/dc/dcmitype/StillImage" />
        <dc:title />
      </cc:Work>
    </rdf:RDF>
  </metadata>
  <g
     inkscape:label="Calque 1"
     inkscape:groupmode="layer"
     id="layer1"
     transform="translate(-58.192397,-229.26396)">
    <text
       xml:space="preserve"
       style="font-size:47.84651184px;font-style:normal;font-weight:normal;line-height:125%;letter-spacing:0px;word-spacing:0px;fill:#f64e5e;fill-opacity:1;stroke:none;font-family:Sans"
       x="216.08934"
       y="218.50861"
       id="text3003"
       sodipodi:linespacing="125%"
       transform="matrix(0.97226601,0.23387774,-0.23387774,0.97226601,0,0)"><tspan
         sodipodi:role="line"
         id="tspan3005"
         x="216.08934"
         y="218.50861">?</tspan></text>
    <g
       transform="translate(-3.788072,-4.1965696)"
       style="font-size:40px;font-style:normal;font-weight:normal;line-height:125%;letter-spacing:0px;word-spacing:0px;fill:#f64e5e;fill-opacity:1;stroke:none;font-family:Sans"
       id="flowRoot2995">
      <path
         d="m 81.257812,265.00419 -4.121093,0 -8.808594,-13.63281 -2.714844,2.22656 0,11.40625 -3.632812,0 0,-28.55469 3.632812,0 0,14.27735 2.363281,-3.28125 8.828125,-10.9961 4.082032,0 -10.15625,12.44141 10.527343,16.11328"
         style="font-variant:normal;font-stretch:normal;letter-spacing:-1.5px;fill:#f64e5e;font-family:WenQuanYi Micro Hei;-inkscape-font-specification:WenQuanYi Micro Hei"
         id="path3834" />
      <path
         d="m 91.632812,265.39482 c -1.432302,0 -2.740894,-0.24089 -3.925781,-0.72266 -1.184902,-0.48177 -2.207037,-1.18489 -3.066406,-2.10938 -0.846358,-0.92447 -1.50391,-2.0703 -1.972656,-3.4375 -0.468753,-1.36718 -0.703127,-2.92967 -0.703125,-4.6875 -2e-6,-1.77082 0.214841,-3.35285 0.644531,-4.74609 0.429684,-1.39321 1.035152,-2.5716 1.816406,-3.53516 0.781245,-0.97654 1.712233,-1.71872 2.792969,-2.22656 1.093741,-0.50779 2.298167,-0.76169 3.613281,-0.76172 1.28905,3e-5 2.447903,0.2344 3.476563,0.70313 1.02863,0.45575 1.901025,1.10679 2.617187,1.95312 0.716128,0.83336 1.263003,1.84247 1.640625,3.02735 0.390606,1.17189 0.585918,2.47397 0.585938,3.90625 l 0,2.20703 -13.515625,0 c 0.0651,2.51303 0.592441,4.36198 1.582031,5.54687 1.002596,1.1849 2.486969,1.77735 4.453125,1.77735 0.66405,0 1.276028,-0.0326 1.835937,-0.0977 0.572903,-0.0651 1.119777,-0.15625 1.640625,-0.27344 0.533839,-0.1302 1.048161,-0.28645 1.542969,-0.46875 0.494774,-0.19531 0.996076,-0.41015 1.503906,-0.64453 l 0,3.16406 c -0.520851,0.2474 -1.035173,0.46224 -1.542968,0.64454 -0.494808,0.18229 -1.009131,0.33203 -1.542969,0.44921 -0.520848,0.11719 -1.067723,0.20183 -1.640625,0.25391 -0.559909,0.0521 -1.171888,0.0781 -1.835938,0.0781 m -0.878906,-19.27735 c -1.484384,2e-5 -2.662768,0.50783 -3.535156,1.52344 -0.859382,1.01564 -1.360683,2.4935 -1.503906,4.43359 l 9.609375,0 c -1.6e-5,-0.8854 -0.09116,-1.69269 -0.273438,-2.42187 -0.169286,-0.74217 -0.442723,-1.37368 -0.820312,-1.89453 -0.364598,-0.52082 -0.833347,-0.92446 -1.40625,-1.21094 -0.572929,-0.28644 -1.263033,-0.42967 -2.070313,-0.42969"
         style="font-variant:normal;font-stretch:normal;letter-spacing:-1.5px;fill:#f64e5e;font-family:WenQuanYi Micro Hei;-inkscape-font-specification:WenQuanYi Micro Hei"
         id="path3836" />
      <path
         d="m 115.69922,265.00419 -14.43359,0 0,-2.44141 10.46875,-16.32812 -9.82422,0 0,-2.67578 13.4375,0 0,2.85156 -10.23438,15.91797 10.58594,0 0,2.67578"
         style="font-variant:normal;font-stretch:normal;letter-spacing:-1.5px;fill:#f64e5e;font-family:WenQuanYi Micro Hei;-inkscape-font-specification:WenQuanYi Micro Hei"
         id="path3838" />
      <path
         d="m 131.28906,265.00419 -0.72265,-2.96875 -0.15625,0 c -0.42971,0.58594 -0.85939,1.09375 -1.28907,1.52344 -0.4297,0.41667 -0.89845,0.76172 -1.40625,1.03515 -0.50782,0.27344 -1.07423,0.47527 -1.69921,0.60547 -0.62501,0.13021 -1.34767,0.19532 -2.16797,0.19532 -0.89845,0 -1.72527,-0.13021 -2.48047,-0.39063 -0.75522,-0.24739 -1.41277,-0.63151 -1.97266,-1.15234 -0.54688,-0.53386 -0.97656,-1.19792 -1.28906,-1.99219 -0.3125,-0.80729 -0.46875,-1.75781 -0.46875,-2.85156 0,-2.13541 0.74869,-3.77603 2.24609,-4.92188 1.51041,-1.14582 3.80208,-1.77082 6.875,-1.875 l 3.59375,-0.13672 0,-1.34765 c -1e-5,-0.87238 -0.0977,-1.60155 -0.29297,-2.1875 -0.1823,-0.58592 -0.45574,-1.05467 -0.82031,-1.40625 -0.35157,-0.36457 -0.79428,-0.62498 -1.32812,-0.78125 -0.52085,-0.15623 -1.11981,-0.23436 -1.79688,-0.23438 -1.08074,2e-5 -2.08985,0.15627 -3.02734,0.46875 -0.92449,0.31252 -1.81641,0.69012 -2.67578,1.13281 l -1.25,-2.67578 c 0.96353,-0.52081 2.03775,-0.96352 3.22265,-1.32812 1.18489,-0.36456 2.42838,-0.54685 3.73047,-0.54688 1.32811,3e-5 2.47395,0.13674 3.4375,0.41016 0.97655,0.26044 1.77733,0.68361 2.40234,1.26953 0.63801,0.57294 1.11327,1.30861 1.42579,2.20703 0.31248,0.89846 0.46873,1.9857 0.46875,3.26172 l 0,14.6875 -2.5586,0 m -6.52343,-2.48047 c 0.79426,0 1.52993,-0.12369 2.20703,-0.37109 0.67707,-0.24739 1.263,-0.61849 1.75781,-1.11328 0.49478,-0.50781 0.87889,-1.13932 1.15234,-1.89453 0.28645,-0.76823 0.42968,-1.66666 0.42969,-2.69532 l 0,-1.93359 -2.79297,0.13672 c -1.17188,0.0521 -2.15496,0.1823 -2.94922,0.39062 -0.79428,0.20835 -1.4323,0.50132 -1.91406,0.87891 -0.46876,0.36459 -0.8073,0.81381 -1.01562,1.34766 -0.20834,0.52084 -0.31251,1.11328 -0.3125,1.77734 -1e-5,1.19792 0.31249,2.07683 0.9375,2.63672 0.63801,0.5599 1.47134,0.83984 2.5,0.83984"
         style="font-variant:normal;font-stretch:normal;letter-spacing:-1.5px;fill:#f64e5e;font-family:WenQuanYi Micro Hei;-inkscape-font-specification:WenQuanYi Micro Hei"
         id="path3840" />
    </g>
    <text
       xml:space="preserve"
       style="font-size:40px;font-style:normal;font-weight:normal;line-height:125%;letter-spacing:0px;word-spacing:0px;fill:#eee046;fill-opacity:1;stroke:none;font-family:Sans"
       x="114.39977"
       y="260.63184"
       id="text3775"
       sodipodi:linespacing="125%"><tspan
         sodipodi:role="line"
         id="tspan3777"
         x="114.39977"
         y="260.63184" /></text>
    <flowRoot
       xml:space="preserve"
       id="flowRoot2985"
       style="font-size:40px;font-style:normal;font-weight:normal;line-height:125%;letter-spacing:0px;word-spacing:0px;fill:#000000;fill-opacity:1;stroke:none;font-family:Sans"><flowRegion
         id="flowRegion2987"><rect
           id="rect2989"
           width="294.28571"
           height="305.71429"
           x="120"
           y="243.79076" /></flowRegion><flowPara
         id="flowPara2991"
         style="font-style:normal;font-variant:normal;font-weight:600;font-stretch:normal;font-family:FreeSans;-inkscape-font-specification:FreeSans Semi-Bold" /></flowRoot>    <g
       transform="translate(72.3804,-4.1965696)"
       style="font-size:40px;font-style:normal;font-weight:normal;line-height:125%;letter-spacing:0px;word-spacing:0px;fill:#fbaf5e;fill-opacity:1;stroke:none;font-family:Sans"
       id="flowRoot2995-4">
      <path
         d="m 69.695312,265.39482 c -1.315114,0 -2.545581,-0.20183 -3.691406,-0.60547 -1.14584,-0.41667 -2.141933,-1.06771 -2.988281,-1.95313 -0.846358,-0.89843 -1.51042,-2.03775 -1.992188,-3.41797 -0.481773,-1.39322 -0.722658,-3.06639 -0.722656,-5.01953 -2e-6,-2.04426 0.247394,-3.77603 0.742188,-5.19531 0.494788,-1.43227 1.171871,-2.59113 2.03125,-3.47656 0.87239,-0.89842 1.888014,-1.54946 3.046875,-1.95313 1.158845,-0.40362 2.402333,-0.60544 3.730468,-0.60547 1.015613,3e-5 2.005195,0.1107 2.96875,0.33203 0.976547,0.22138 1.790349,0.49482 2.441407,0.82032 l -1.054688,3.00781 c -0.299495,-0.13019 -0.631526,-0.25389 -0.996094,-0.37109 -0.364598,-0.13019 -0.742201,-0.24087 -1.132812,-0.33204 -0.390639,-0.10414 -0.774753,-0.18227 -1.152344,-0.23437 -0.377616,-0.0651 -0.735689,-0.0976 -1.074219,-0.0977 -2.04428,2e-5 -3.535164,0.65757 -4.472656,1.97266 -0.937506,1.3021 -1.406256,3.33335 -1.40625,6.09375 -6e-6,2.7474 0.468744,4.75912 1.40625,6.03516 0.950513,1.26302 2.389313,1.89453 4.316406,1.89453 1.054675,0 2.005195,-0.11719 2.851563,-0.35157 0.85936,-0.24739 1.640609,-0.53385 2.34375,-0.85937 l 0,3.16406 c -0.703141,0.37761 -1.458349,0.66406 -2.265625,0.85938 -0.794285,0.19531 -1.770846,0.29297 -2.929688,0.29297"
         style="font-variant:normal;font-stretch:normal;letter-spacing:-1.5px;fill:#fbaf5e;font-family:WenQuanYi Micro Hei;-inkscape-font-specification:WenQuanYi Micro Hei"
         id="path3843" />
      <path
         d="m 95.988281,254.24247 c -2.1e-5,1.78387 -0.221375,3.37241 -0.664062,4.76563 -0.429708,1.38021 -1.054707,2.54557 -1.875,3.49609 -0.807309,0.9375 -1.790381,1.65365 -2.949219,2.14844 -1.158868,0.49479 -2.46095,0.74219 -3.90625,0.74219 -1.341156,0 -2.578134,-0.2474 -3.710938,-0.74219 -1.132819,-0.49479 -2.115891,-1.21094 -2.949218,-2.14844 C 79.113277,261.55367 78.468747,260.38831 78,259.0081 c -0.455732,-1.39322 -0.683596,-2.98176 -0.683594,-4.76563 -2e-6,-1.77082 0.214842,-3.33983 0.644531,-4.70703 0.442706,-1.38019 1.067705,-2.53904 1.875,-3.47656 0.807287,-0.9505 1.790359,-1.66665 2.949219,-2.14844 1.171866,-0.49477 2.480459,-0.74216 3.925781,-0.74219 1.341133,3e-5 2.578111,0.24742 3.710938,0.74219 1.132796,0.48179 2.109358,1.19794 2.929687,2.14844 0.833315,0.93752 1.477845,2.09637 1.933594,3.47656 0.46873,1.3672 0.703104,2.93621 0.703125,4.70703 m -15,0 c -6e-6,2.72136 0.442702,4.77214 1.328125,6.15235 0.89843,1.36719 2.350251,2.05078 4.355469,2.05078 2.005195,0 3.443995,-0.68359 4.316406,-2.05078 0.8854,-1.38021 1.328108,-3.43099 1.328125,-6.15235 -1.7e-5,-2.72134 -0.449235,-4.75259 -1.347656,-6.09375 -0.885432,-1.35415 -2.330743,-2.03123 -4.335938,-2.03125 -2.005217,2e-5 -3.450528,0.6771 -4.335937,2.03125 -0.872402,1.34116 -1.3086,3.37241 -1.308594,6.09375"
         style="font-variant:normal;font-stretch:normal;letter-spacing:-1.5px;fill:#fbaf5e;font-family:WenQuanYi Micro Hei;-inkscape-font-specification:WenQuanYi Micro Hei"
         id="path3845" />
    </g>
    <flowRoot
       xml:space="preserve"
       id="flowRoot3806"
       style="font-size:40px;font-style:normal;font-weight:normal;line-height:125%;letter-spacing:0px;word-spacing:0px;fill:#000000;fill-opacity:1;stroke:none;font-family:Sans"><flowRegion
         id="flowRegion3808"><rect
           id="rect3810"
           width="208.09143"
           height="74.246216"
           x="30.052038"
           y="213.4305" /></flowRegion><flowPara
         id="flowPara3812" /></flowRoot>  </g>
</svg>
